<svg width="301" height="51" viewBox="0 0 301 51" fill="none" xmlns="http://www.w3.org/2000/svg">
<path d="M12.28 39.544H2.744C2.232 39.544 1.784 39.352 1.4 38.968C1.016 38.584 0.824 38.136 0.824 37.624V31.672C0.824 31.16 1.016 30.712 1.4 30.328C1.784 29.944 2.232 29.752 2.744 29.752H11.96V27.704H8.632C8.12 27.704 7.672 27.5333 7.288 27.192C6.904 26.808 6.712 26.3387 6.712 25.784V21.432H2.744C2.232 21.432 1.784 21.24 1.4 20.856C1.016 20.472 0.824 20.0027 0.824 19.448V13.944C0.824 13.3893 1.016 12.92 1.4 12.536C1.784 12.152 2.232 11.96 2.744 11.96H6.392V7.992C6.392 7.48 6.584 7.032 6.968 6.648C7.352 6.264 7.8 6.072 8.312 6.072H12.28V2.488C12.28 1.93333 12.472 1.464 12.856 1.08C13.24 0.695998 13.688 0.503998 14.2 0.503998H20.152C20.664 0.503998 21.112 0.695998 21.496 1.08C21.88 1.464 22.072 1.93333 22.072 2.488V6.072H31.608C32.12 6.072 32.568 6.264 32.952 6.648C33.336 7.032 33.528 7.48 33.528 7.992V13.944C33.528 14.456 33.336 14.904 32.952 15.288C32.568 15.672 32.12 15.864 31.608 15.864H22.456V17.976H25.656C26.2107 17.976 26.68 18.168 27.064 18.552C27.448 18.8933 27.64 19.3413 27.64 19.896V24.184H31.608C32.12 24.184 32.568 24.376 32.952 24.76C33.336 25.144 33.528 25.6133 33.528 26.168V31.672C33.528 32.2267 33.336 32.696 32.952 33.08C32.568 33.464 32.12 33.656 31.608 33.656H27.96V37.624C27.96 38.136 27.768 38.584 27.384 38.968C27 39.352 26.552 39.544 26.04 39.544H22.072V43.192C22.072 43.704 21.88 44.152 21.496 44.536C21.112 44.92 20.664 45.112 20.152 45.112H14.2C13.688 45.112 13.24 44.92 12.856 44.536C12.472 44.152 12.28 43.704 12.28 43.192V39.544ZM10.232 16.248V17.976H11.96V16.248H10.232ZM22.456 29.432H24.12V27.704H22.456V29.432ZM47.439 41.592H50.703V9.912H47.439C46.8843 9.912 46.415 9.74133 46.031 9.4C45.647 9.016 45.455 8.54666 45.455 7.992V2.488C45.455 1.93333 45.647 1.464 46.031 1.08C46.415 0.695998 46.8843 0.503998 47.439 0.503998H76.239C76.7937 0.503998 77.2417 0.695998 77.583 1.08C77.967 1.464 78.159 1.93333 78.159 2.488V6.456H82.127C82.6817 6.456 83.151 6.648 83.535 7.032C83.919 7.37333 84.111 7.82133 84.111 8.376V19.832C84.111 20.344 83.919 20.792 83.535 21.176C83.151 21.56 82.6817 21.752 82.127 21.752H78.607V24.184H82.127C82.6817 24.184 83.151 24.376 83.535 24.76C83.919 25.144 84.111 25.6133 84.111 26.168V43.512C84.111 44.024 83.919 44.472 83.535 44.856C83.151 45.24 82.6817 45.432 82.127 45.432H78.607V49.08C78.607 49.592 78.415 50.04 78.031 50.424C77.647 50.808 77.199 51 76.687 51H47.439C46.8843 51 46.415 50.808 46.031 50.424C45.647 50.04 45.455 49.592 45.455 49.08V43.512C45.455 43 45.647 42.552 46.031 42.168C46.415 41.784 46.8843 41.592 47.439 41.592ZM61.135 41.208H74.703V27.704H61.135V41.208ZM61.135 17.528H74.703V9.912H61.135V17.528ZM91.5015 6.072H95.0855V2.488C95.0855 1.93333 95.2775 1.464 95.6615 1.08C96.0455 0.695998 96.4935 0.503998 97.0055 0.503998H120.302C120.856 0.503998 121.304 0.695998 121.646 1.08C122.03 1.464 122.222 1.93333 122.222 2.488V6.456H126.19C126.744 6.456 127.214 6.648 127.598 7.032C127.982 7.37333 128.174 7.82133 128.174 8.376V13.56C128.174 14.1147 127.982 14.584 127.598 14.968C127.214 15.3093 126.744 15.48 126.19 15.48H121.069C120.558 15.48 120.11 15.3093 119.726 14.968C119.342 14.584 119.15 14.1147 119.15 13.56V9.912H98.9895V18.296H120.302C120.856 18.296 121.304 18.488 121.646 18.872C122.03 19.256 122.222 19.704 122.222 20.216V24.184H126.19C126.744 24.184 127.214 24.376 127.598 24.76C127.982 25.144 128.174 25.6133 128.174 26.168V43.512C128.174 44.024 127.982 44.472 127.598 44.856C127.214 45.24 126.744 45.432 126.19 45.432H122.67V49.08C122.67 49.592 122.478 50.04 122.094 50.424C121.71 50.808 121.262 51 120.75 51H97.3895C96.8348 51 96.3655 50.808 95.9815 50.424C95.6402 50.04 95.4695 49.592 95.4695 49.08V45.112H91.5015C90.9468 45.112 90.4775 44.92 90.0935 44.536C89.7095 44.152 89.5175 43.704 89.5175 43.192V37.944C89.5175 37.432 89.7095 36.984 90.0935 36.6C90.4775 36.216 90.9468 36.024 91.5015 36.024H96.6855C97.1975 36.024 97.6455 36.216 98.0295 36.6C98.4135 36.984 98.6055 37.432 98.6055 37.944V41.592H118.766V27.32H97.3895C96.8348 27.32 96.3655 27.128 95.9815 26.744C95.6402 26.36 95.4695 25.912 95.4695 25.4V21.432H91.5015C90.9468 21.432 90.4775 21.24 90.0935 20.856C89.7095 20.472 89.5175 20.0027 89.5175 19.448V7.992C89.5175 7.48 89.7095 7.032 90.0935 6.648C90.4775 6.264 90.9468 6.072 91.5015 6.072ZM163.891 16.248H161.779V19.448C161.779 20.0027 161.587 20.472 161.203 20.856C160.861 21.24 160.413 21.432 159.859 21.432H148.403C147.891 21.432 147.443 21.24 147.059 20.856C146.675 20.472 146.483 20.0027 146.483 19.448V15.864H144.115V49.08C144.115 49.592 143.923 50.04 143.539 50.424C143.155 50.808 142.685 51 142.131 51H136.627C136.072 51 135.603 50.808 135.219 50.424C134.835 50.04 134.643 49.592 134.643 49.08V2.488C134.643 1.93333 134.835 1.464 135.219 1.08C135.603 0.695998 136.072 0.503998 136.627 0.503998H142.131C142.685 0.503998 143.155 0.695998 143.539 1.08C143.923 1.464 144.115 1.93333 144.115 2.488V6.072H147.699C148.253 6.072 148.701 6.264 149.043 6.648C149.427 7.032 149.619 7.48 149.619 7.992V11.96H157.939V7.992C157.939 7.48 158.131 7.032 158.515 6.648C158.899 6.264 159.347 6.072 159.859 6.072H163.891V2.488C163.891 1.93333 164.083 1.464 164.467 1.08C164.851 0.695998 165.32 0.503998 165.875 0.503998H171.315C171.869 0.503998 172.339 0.695998 172.723 1.08C173.107 1.464 173.299 1.93333 173.299 2.488V49.08C173.299 49.592 173.107 50.04 172.723 50.424C172.339 50.808 171.869 51 171.315 51H165.875C165.32 51 164.851 50.808 164.467 50.424C164.083 50.04 163.891 49.592 163.891 49.08V16.248ZM182.314 0.503998H217.002C217.557 0.503998 218.026 0.695998 218.41 1.08C218.794 1.464 218.986 1.93333 218.986 2.488V49.08C218.986 49.592 218.794 50.04 218.41 50.424C218.026 50.808 217.557 51 217.002 51H182.314C181.759 51 181.29 50.808 180.906 50.424C180.522 50.04 180.33 49.592 180.33 49.08V2.488C180.33 1.93333 180.522 1.464 180.906 1.08C181.29 0.695998 181.759 0.503998 182.314 0.503998ZM190.122 10.296V41.208H209.194V10.296H190.122ZM227.932 0.503998H233.5C234.012 0.503998 234.46 0.695998 234.844 1.08C235.228 1.464 235.42 1.93333 235.42 2.488V41.592H256.796C257.308 41.592 257.756 41.784 258.14 42.168C258.524 42.552 258.716 43 258.716 43.512V49.08C258.716 49.592 258.524 50.04 258.14 50.424C257.756 50.808 257.308 51 256.796 51H227.932C227.42 51 226.972 50.808 226.588 50.424C226.204 50.04 226.012 49.592 226.012 49.08V2.488C226.012 1.93333 226.204 1.464 226.588 1.08C226.972 0.695998 227.42 0.503998 227.932 0.503998ZM264.064 0.503998H298.752C299.307 0.503998 299.776 0.695998 300.16 1.08C300.544 1.464 300.736 1.93333 300.736 2.488V7.992C300.736 8.54666 300.544 9.016 300.16 9.4C299.776 9.74133 299.307 9.912 298.752 9.912H271.872V19.832H286.976C287.488 19.832 287.936 20.024 288.32 20.408C288.704 20.7493 288.896 21.1973 288.896 21.752V27.704C288.896 28.2587 288.704 28.728 288.32 29.112C287.936 29.4533 287.488 29.624 286.976 29.624H271.872V41.592H298.752C299.307 41.592 299.776 41.784 300.16 42.168C300.544 42.552 300.736 43 300.736 43.512V49.08C300.736 49.592 300.544 50.04 300.16 50.424C299.776 50.808 299.307 51 298.752 51H264.064C263.509 51 263.04 50.808 262.656 50.424C262.272 50.04 262.08 49.592 262.08 49.08V2.488C262.08 1.93333 262.272 1.464 262.656 1.08C263.04 0.695998 263.509 0.503998 264.064 0.503998Z" fill="white"/>
</svg>
