<svg width="2486" height="3404" viewBox="0 0 2486 3404" fill="none" xmlns="http://www.w3.org/2000/svg">
<path d="M285.5 78.5H299.5V64.5C299.5 62.3333 300.25 60.5 301.75 59C303.25 57.5 305 56.75 307 56.75H398C400.167 56.75 401.917 57.5 403.25 59C404.75 60.5 405.5 62.3333 405.5 64.5V80H421C423.167 80 425 80.75 426.5 82.25C428 83.5833 428.75 85.3333 428.75 87.5V246.5C428.75 248.5 428 250.25 426.5 251.75C425 253.25 423.167 254 421 254H399.75C397.583 254 395.75 253.25 394.25 251.75C392.75 250.25 392 248.5 392 246.5V187.5H314.75V246.5C314.75 248.5 314 250.25 312.5 251.75C311 253.25 309.167 254 307 254H285.5C283.333 254 281.5 253.25 280 251.75C278.5 250.25 277.75 248.5 277.75 246.5V86C277.75 84 278.5 82.25 280 80.75C281.5 79.25 283.333 78.5 285.5 78.5ZM316 146.5H392V93.5H316V146.5ZM461.037 217.25H473.787V93.5H461.037C458.87 93.5 457.037 92.8333 455.537 91.5C454.037 90 453.287 88.1667 453.287 86V64.5C453.287 62.3333 454.037 60.5 455.537 59C457.037 57.5 458.87 56.75 461.037 56.75H573.537C575.704 56.75 577.454 57.5 578.787 59C580.287 60.5 581.037 62.3333 581.037 64.5V80H596.537C598.704 80 600.537 80.75 602.037 82.25C603.537 83.5833 604.287 85.3333 604.287 87.5V132.25C604.287 134.25 603.537 136 602.037 137.5C600.537 139 598.704 139.75 596.537 139.75H582.787V149.25H596.537C598.704 149.25 600.537 150 602.037 151.5C603.537 153 604.287 154.833 604.287 157V224.75C604.287 226.75 603.537 228.5 602.037 230C600.537 231.5 598.704 232.25 596.537 232.25H582.787V246.5C582.787 248.5 582.037 250.25 580.537 251.75C579.037 253.25 577.287 254 575.287 254H461.037C458.87 254 457.037 253.25 455.537 251.75C454.037 250.25 453.287 248.5 453.287 246.5V224.75C453.287 222.75 454.037 221 455.537 219.5C457.037 218 458.87 217.25 461.037 217.25ZM514.537 215.75H567.537V163H514.537V215.75ZM514.537 123.25H567.537V93.5H514.537V123.25ZM638.527 56.75H774.027C776.194 56.75 778.027 57.5 779.527 59C781.027 60.5 781.777 62.3333 781.777 64.5V246.5C781.777 248.5 781.027 250.25 779.527 251.75C778.027 253.25 776.194 254 774.027 254H638.527C636.361 254 634.527 253.25 633.027 251.75C631.527 250.25 630.777 248.5 630.777 246.5V64.5C630.777 62.3333 631.527 60.5 633.027 59C634.527 57.5 636.361 56.75 638.527 56.75ZM669.027 95V215.75H743.527V95H669.027ZM816.506 56.75H836.756C838.756 56.75 840.506 57.5 842.006 59C843.506 60.5 844.256 62.3333 844.256 64.5V217.25H923.006V64.5C923.006 62.3333 923.756 60.5 925.256 59C926.756 57.5 928.589 56.75 930.756 56.75H952.006C954.173 56.75 956.006 57.5 957.506 59C959.006 60.5 959.756 62.3333 959.756 64.5V224.75C959.756 226.75 959.006 228.5 957.506 230C956.006 231.5 954.173 232.25 952.006 232.25H938.256V246.5C938.256 248.5 937.506 250.25 936.006 251.75C934.506 253.25 932.756 254 930.756 254H839.506C837.339 254 835.506 253.25 834.006 251.75C832.673 250.25 832.006 248.5 832.006 246.5V231H816.506C814.339 231 812.506 230.25 811.006 228.75C809.506 227.25 808.756 225.5 808.756 223.5V64.5C808.756 62.3333 809.506 60.5 811.006 59C812.506 57.5 814.339 56.75 816.506 56.75ZM1024.38 93.5H987.131C985.131 93.5 983.381 92.8333 981.881 91.5C980.381 90 979.631 88.1667 979.631 86V64.5C979.631 62.3333 980.381 60.5 981.881 59C983.381 57.5 985.131 56.75 987.131 56.75H1099.88C1101.88 56.75 1103.63 57.5 1105.13 59C1106.63 60.5 1107.38 62.3333 1107.38 64.5V86C1107.38 88.1667 1106.63 90 1105.13 91.5C1103.63 92.8333 1101.88 93.5 1099.88 93.5H1062.63V246.5C1062.63 248.5 1061.88 250.25 1060.38 251.75C1058.88 253.25 1057.13 254 1055.13 254H1031.88C1029.88 254 1028.13 253.25 1026.63 251.75C1025.13 250.25 1024.38 248.5 1024.38 246.5V93.5Z" fill="white"/>
<path d="M1217.14 217.25H1229.89V93.5H1217.14C1214.97 93.5 1213.14 92.8333 1211.64 91.5C1210.14 90 1209.39 88.1667 1209.39 86V64.5C1209.39 62.3333 1210.14 60.5 1211.64 59C1213.14 57.5 1214.97 56.75 1217.14 56.75H1329.64C1331.81 56.75 1333.56 57.5 1334.89 59C1336.39 60.5 1337.14 62.3333 1337.14 64.5V80H1352.64C1354.81 80 1356.64 80.75 1358.14 82.25C1359.64 83.5833 1360.39 85.3333 1360.39 87.5V132.25C1360.39 134.25 1359.64 136 1358.14 137.5C1356.64 139 1354.81 139.75 1352.64 139.75H1338.89V149.25H1352.64C1354.81 149.25 1356.64 150 1358.14 151.5C1359.64 153 1360.39 154.833 1360.39 157V224.75C1360.39 226.75 1359.64 228.5 1358.14 230C1356.64 231.5 1354.81 232.25 1352.64 232.25H1338.89V246.5C1338.89 248.5 1338.14 250.25 1336.64 251.75C1335.14 253.25 1333.39 254 1331.39 254H1217.14C1214.97 254 1213.14 253.25 1211.64 251.75C1210.14 250.25 1209.39 248.5 1209.39 246.5V224.75C1209.39 222.75 1210.14 221 1211.64 219.5C1213.14 218 1214.97 217.25 1217.14 217.25ZM1270.64 215.75H1323.64V163H1270.64V215.75ZM1270.64 123.25H1323.64V93.5H1270.64V123.25ZM1389.26 78.5H1403.26V64.5C1403.26 62.3333 1404.01 60.5 1405.51 59C1407.01 57.5 1408.76 56.75 1410.76 56.75H1501.76C1503.93 56.75 1505.68 57.5 1507.01 59C1508.51 60.5 1509.26 62.3333 1509.26 64.5V80H1524.76C1526.93 80 1528.76 80.75 1530.26 82.25C1531.76 83.5833 1532.51 85.3333 1532.51 87.5V107.75C1532.51 109.917 1531.76 111.75 1530.26 113.25C1528.76 114.583 1526.93 115.25 1524.76 115.25H1504.76C1502.76 115.25 1501.01 114.583 1499.51 113.25C1498.01 111.75 1497.26 109.917 1497.26 107.75V93.5H1418.51V126.25H1501.76C1503.93 126.25 1505.68 127 1507.01 128.5C1508.51 130 1509.26 131.75 1509.26 133.75V149.25H1524.76C1526.93 149.25 1528.76 150 1530.26 151.5C1531.76 153 1532.51 154.833 1532.51 157V224.75C1532.51 226.75 1531.76 228.5 1530.26 230C1528.76 231.5 1526.93 232.25 1524.76 232.25H1511.01V246.5C1511.01 248.5 1510.26 250.25 1508.76 251.75C1507.26 253.25 1505.51 254 1503.51 254H1412.26C1410.09 254 1408.26 253.25 1406.76 251.75C1405.43 250.25 1404.76 248.5 1404.76 246.5V231H1389.26C1387.09 231 1385.26 230.25 1383.76 228.75C1382.26 227.25 1381.51 225.5 1381.51 223.5V203C1381.51 201 1382.26 199.25 1383.76 197.75C1385.26 196.25 1387.09 195.5 1389.26 195.5H1409.51C1411.51 195.5 1413.26 196.25 1414.76 197.75C1416.26 199.25 1417.01 201 1417.01 203V217.25H1495.76V161.5H1412.26C1410.09 161.5 1408.26 160.75 1406.76 159.25C1405.43 157.75 1404.76 156 1404.76 154V138.5H1389.26C1387.09 138.5 1385.26 137.75 1383.76 136.25C1382.26 134.75 1381.51 132.917 1381.51 130.75V86C1381.51 84 1382.26 82.25 1383.76 80.75C1385.26 79.25 1387.09 78.5 1389.26 78.5ZM1672.03 118.25H1663.78V130.75C1663.78 132.917 1663.03 134.75 1661.53 136.25C1660.2 137.75 1658.45 138.5 1656.28 138.5H1611.53C1609.53 138.5 1607.78 137.75 1606.28 136.25C1604.78 134.75 1604.03 132.917 1604.03 130.75V116.75H1594.78V246.5C1594.78 248.5 1594.03 250.25 1592.53 251.75C1591.03 253.25 1589.2 254 1587.03 254H1565.53C1563.36 254 1561.53 253.25 1560.03 251.75C1558.53 250.25 1557.78 248.5 1557.78 246.5V64.5C1557.78 62.3333 1558.53 60.5 1560.03 59C1561.53 57.5 1563.36 56.75 1565.53 56.75H1587.03C1589.2 56.75 1591.03 57.5 1592.53 59C1594.03 60.5 1594.78 62.3333 1594.78 64.5V78.5H1608.78C1610.95 78.5 1612.7 79.25 1614.03 80.75C1615.53 82.25 1616.28 84 1616.28 86V101.5H1648.78V86C1648.78 84 1649.53 82.25 1651.03 80.75C1652.53 79.25 1654.28 78.5 1656.28 78.5H1672.03V64.5C1672.03 62.3333 1672.78 60.5 1674.28 59C1675.78 57.5 1677.61 56.75 1679.78 56.75H1701.03C1703.2 56.75 1705.03 57.5 1706.53 59C1708.03 60.5 1708.78 62.3333 1708.78 64.5V246.5C1708.78 248.5 1708.03 250.25 1706.53 251.75C1705.03 253.25 1703.2 254 1701.03 254H1679.78C1677.61 254 1675.78 253.25 1674.28 251.75C1672.78 250.25 1672.03 248.5 1672.03 246.5V118.25ZM1744 56.75H1879.5C1881.66 56.75 1883.5 57.5 1885 59C1886.5 60.5 1887.25 62.3333 1887.25 64.5V246.5C1887.25 248.5 1886.5 250.25 1885 251.75C1883.5 253.25 1881.66 254 1879.5 254H1744C1741.83 254 1740 253.25 1738.5 251.75C1737 250.25 1736.25 248.5 1736.25 246.5V64.5C1736.25 62.3333 1737 60.5 1738.5 59C1740 57.5 1741.83 56.75 1744 56.75ZM1774.5 95V215.75H1849V95H1774.5ZM1922.19 56.75H1943.94C1945.94 56.75 1947.69 57.5 1949.19 59C1950.69 60.5 1951.44 62.3333 1951.44 64.5V217.25H2034.94C2036.94 217.25 2038.69 218 2040.19 219.5C2041.69 221 2042.44 222.75 2042.44 224.75V246.5C2042.44 248.5 2041.69 250.25 2040.19 251.75C2038.69 253.25 2036.94 254 2034.94 254H1922.19C1920.19 254 1918.44 253.25 1916.94 251.75C1915.44 250.25 1914.69 248.5 1914.69 246.5V64.5C1914.69 62.3333 1915.44 60.5 1916.94 59C1918.44 57.5 1920.19 56.75 1922.19 56.75ZM2063.33 56.75H2198.83C2201 56.75 2202.83 57.5 2204.33 59C2205.83 60.5 2206.58 62.3333 2206.58 64.5V86C2206.58 88.1667 2205.83 90 2204.33 91.5C2202.83 92.8333 2201 93.5 2198.83 93.5H2093.83V132.25H2152.83C2154.83 132.25 2156.58 133 2158.08 134.5C2159.58 135.833 2160.33 137.583 2160.33 139.75V163C2160.33 165.167 2159.58 167 2158.08 168.5C2156.58 169.833 2154.83 170.5 2152.83 170.5H2093.83V217.25H2198.83C2201 217.25 2202.83 218 2204.33 219.5C2205.83 221 2206.58 222.75 2206.58 224.75V246.5C2206.58 248.5 2205.83 250.25 2204.33 251.75C2202.83 253.25 2201 254 2198.83 254H2063.33C2061.17 254 2059.33 253.25 2057.83 251.75C2056.33 250.25 2055.58 248.5 2055.58 246.5V64.5C2055.58 62.3333 2056.33 60.5 2057.83 59C2059.33 57.5 2061.17 56.75 2063.33 56.75Z" fill="#2F1ECD"/>
<path d="M103 48L130.819 123.181L206 151L130.819 178.819L103 254L75.1806 178.819L0 151L75.1806 123.181L103 48Z" fill="white"/>
<path d="M2383 48L2410.82 123.181L2486 151L2410.82 178.819L2383 254L2355.18 178.819L2280 151L2355.18 123.181L2383 48Z" fill="white"/>
<path d="M75 629V591.5H87.5V679H62.5V654H25V679H0V591.5H25V629H37.5V604H62.5V629H75ZM100 679V591.5H162.5V604H125V629H162.5V641.5H125V666.5H162.5V679H100ZM237.5 663.375V679H175V591.5H200V663.375H237.5ZM300 654H325V666.5H312.5V679H262.5V666.5H250V604H262.5V591.5H312.5V604H325V616.5H300V604H275V666.5H300V654ZM387.5 604H362.5V666.5H387.5V604ZM350 666.5H337.5V604H350V591.5H400V604H412.5V666.5H400V679H350V666.5ZM437.5 641.5V679H425V591.5H450V616.5H487.5V591.5H512.5V679H487.5V641.5H475V666.5H450V641.5H437.5ZM525 679V591.5H587.5V604H550V629H587.5V641.5H550V666.5H587.5V679H525ZM725 591.5V604H700V679H675V604H650V591.5H725ZM787.5 604H762.5V666.5H787.5V604ZM750 666.5H737.5V604H750V591.5H800V604H812.5V666.5H800V679H750V666.5ZM950 591.5V604H925V679H900V604H875V591.5H950ZM1012.5 591.5H1037.5V679H1012.5V641.5H987.5V679H962.5V591.5H987.5V629H1012.5V591.5ZM1050 679V591.5H1112.5V604H1075V629H1112.5V641.5H1075V666.5H1112.5V679H1050ZM1250 629V591.5H1262.5V679H1237.5V654H1200V679H1175V591.5H1200V629H1212.5V604H1237.5V629H1250ZM1325 604H1300V666.5H1325V604ZM1287.5 666.5H1275V604H1287.5V591.5H1337.5V604H1350V666.5H1337.5V679H1287.5V666.5ZM1412.5 604H1387.5V629H1412.5V604ZM1425 641.5H1437.5V679H1412.5V641.5H1387.5V679H1362.5V591.5H1425V604H1437.5V629H1425V641.5ZM1512.5 663.375V679H1450V591.5H1475V663.375H1512.5ZM1575 604H1550V666.5H1575V604ZM1525 679V591.5H1587.5V604H1600V666.5H1587.5V679H1525ZM1712.5 604H1687.5V666.5H1712.5V604ZM1675 666.5H1662.5V604H1675V591.5H1725V604H1737.5V666.5H1725V679H1675V666.5ZM1812.5 591.5V604H1775V629H1812.5V641.5H1775V679H1750V591.5H1812.5ZM1925 604H1900V629H1925V604ZM1875 679V591.5H1937.5V604H1950V629H1937.5V641.5H1950V666.5H1937.5V679H1875ZM1925 666.5V641.5H1900V666.5H1925ZM2012.5 641.5V604H1987.5V641.5H2012.5ZM1987.5 654V679H1962.5V604H1975V591.5H2025V604H2037.5V679H2012.5V654H1987.5ZM2100 604H2075V629H2112.5V641.5H2125V666.5H2112.5V679H2062.5V666.5H2050V654H2075V666.5H2100V641.5H2062.5V629H2050V604H2062.5V591.5H2112.5V604H2125V616.5H2100V604ZM2137.5 679V591.5H2200V604H2162.5V629H2200V641.5H2162.5V666.5H2200V679H2137.5ZM2262.5 604H2237.5V666.5H2262.5V604ZM2212.5 679V591.5H2275V604H2287.5V666.5H2275V679H2212.5ZM50 754H25V779H62.5V791.5H75V816.5H62.5V829H12.5V816.5H0V804H25V816.5H50V791.5H12.5V779H0V754H12.5V741.5H62.5V754H75V766.5H50V754ZM100 791.5V829H87.5V741.5H112.5V766.5H150V741.5H175V829H150V791.5H137.5V816.5H112.5V791.5H100ZM237.5 754H212.5V816.5H237.5V754ZM200 816.5H187.5V754H200V741.5H250V754H262.5V816.5H250V829H200V816.5ZM337.5 813.375V829H275V741.5H300V813.375H337.5ZM350 829V741.5H412.5V754H375V779H412.5V791.5H375V816.5H412.5V829H350ZM475 779H537.5V791.5H475V779ZM675 741.5V754H650V829H625V754H600V741.5H675ZM737.5 741.5H762.5V829H737.5V791.5H712.5V829H687.5V741.5H712.5V779H737.5V741.5ZM775 829V741.5H837.5V754H800V779H837.5V791.5H800V816.5H837.5V829H775ZM950 754H925V779H962.5V791.5H975V816.5H962.5V829H912.5V816.5H900V804H925V816.5H950V791.5H912.5V779H900V754H912.5V741.5H962.5V754H975V766.5H950V754ZM1000 791.5V829H987.5V741.5H1012.5V766.5H1050V741.5H1075V829H1050V791.5H1037.5V816.5H1012.5V791.5H1000ZM1137.5 754H1112.5V816.5H1137.5V754ZM1100 816.5H1087.5V754H1100V741.5H1150V754H1162.5V816.5H1150V829H1100V816.5ZM1237.5 813.375V829H1175V741.5H1200V813.375H1237.5ZM1250 829V741.5H1312.5V754H1275V779H1312.5V791.5H1275V816.5H1312.5V829H1250ZM1375 754H1350V779H1387.5V791.5H1400V816.5H1387.5V829H1337.5V816.5H1325V804H1350V816.5H1375V791.5H1337.5V779H1325V754H1337.5V741.5H1387.5V754H1400V766.5H1375V754ZM1487.5 741.5V754H1462.5V829H1437.5V754H1412.5V741.5H1487.5ZM1625 741.5V754H1600V829H1575V754H1550V741.5H1625ZM1687.5 754H1662.5V816.5H1687.5V754ZM1650 816.5H1637.5V754H1650V741.5H1700V754H1712.5V816.5H1700V829H1650V816.5ZM1750 829H1725V741.5H1750V779H1762.5V766.5H1775V741.5H1800V766.5H1787.5V779H1775V791.5H1787.5V804H1800V829H1775V804H1762.5V791.5H1750V829ZM1812.5 829V741.5H1875V754H1837.5V779H1875V791.5H1837.5V816.5H1875V829H1812.5ZM1900 791.5V829H1887.5V741.5H1912.5V766.5H1925V791.5H1937.5V741.5H1962.5V829H1937.5V816.5H1912.5V791.5H1900ZM2075 754H2050V816.5H2075V754ZM2037.5 816.5H2025V754H2037.5V741.5H2087.5V754H2100V816.5H2087.5V829H2037.5V816.5ZM2125 791.5V829H2112.5V741.5H2137.5V766.5H2150V791.5H2162.5V741.5H2187.5V829H2162.5V816.5H2137.5V791.5H2125ZM75 891.5V904H50V979H25V904H0V891.5H75ZM137.5 891.5H162.5V979H137.5V941.5H112.5V979H87.5V891.5H112.5V929H137.5V891.5ZM175 979V891.5H237.5V904H200V929H237.5V941.5H200V966.5H237.5V979H175ZM350 904H325V929H362.5V941.5H375V966.5H362.5V979H312.5V966.5H300V954H325V966.5H350V941.5H312.5V929H300V904H312.5V891.5H362.5V904H375V916.5H350V904ZM400 941.5V979H387.5V891.5H412.5V916.5H450V891.5H475V979H450V941.5H437.5V966.5H412.5V941.5H400ZM537.5 904H512.5V966.5H537.5V904ZM500 966.5H487.5V904H500V891.5H550V904H562.5V966.5H550V979H500V966.5ZM637.5 963.375V979H575V891.5H600V963.375H637.5ZM700 941.5V904H675V941.5H700ZM675 954V979H650V904H662.5V891.5H712.5V904H725V979H700V954H675ZM750 941.5V979H737.5V891.5H762.5V916.5H775V941.5H787.5V891.5H812.5V979H787.5V966.5H762.5V941.5H750ZM875 941.5V904H850V941.5H875ZM850 954V979H825V904H837.5V891.5H887.5V904H900V979H875V954H850ZM1012.5 954H1037.5V966.5H1025V979H975V966.5H962.5V904H975V891.5H1025V904H1037.5V916.5H1012.5V904H987.5V966.5H1012.5V954ZM1100 891.5H1125V979H1100V941.5H1075V979H1050V891.5H1075V929H1100V891.5ZM1187.5 941.5V904H1162.5V941.5H1187.5ZM1162.5 954V979H1137.5V904H1150V891.5H1200V904H1212.5V979H1187.5V954H1162.5ZM1225 979V891.5H1250V979H1225ZM1275 941.5V979H1262.5V891.5H1287.5V916.5H1300V941.5H1312.5V891.5H1337.5V979H1312.5V966.5H1287.5V941.5H1275ZM1350 979V966.5H1362.5V979H1350ZM1500 891.5V904H1475V979H1450V904H1425V891.5H1500ZM1562.5 891.5H1587.5V979H1562.5V941.5H1537.5V979H1512.5V891.5H1537.5V929H1562.5V891.5ZM1600 979V891.5H1625V979H1600ZM1687.5 904H1662.5V929H1700V941.5H1712.5V966.5H1700V979H1650V966.5H1637.5V954H1662.5V966.5H1687.5V941.5H1650V929H1637.5V904H1650V891.5H1700V904H1712.5V916.5H1687.5V904ZM1850 891.5V904H1825V979H1800V904H1775V891.5H1850ZM1912.5 904H1887.5V966.5H1912.5V904ZM1875 966.5H1862.5V904H1875V891.5H1925V904H1937.5V966.5H1925V979H1875V966.5ZM1975 979H1950V891.5H1975V929H1987.5V916.5H2000V891.5H2025V916.5H2012.5V929H2000V941.5H2012.5V954H2025V979H2000V954H1987.5V941.5H1975V979ZM2037.5 979V891.5H2100V904H2062.5V929H2100V941.5H2062.5V966.5H2100V979H2037.5ZM2125 941.5V979H2112.5V891.5H2137.5V916.5H2150V941.5H2162.5V891.5H2187.5V979H2162.5V966.5H2137.5V941.5H2125ZM2250 979V891.5H2275V979H2250ZM2337.5 904H2312.5V929H2350V941.5H2362.5V966.5H2350V979H2300V966.5H2287.5V954H2312.5V966.5H2337.5V941.5H2300V929H2287.5V904H2300V891.5H2350V904H2362.5V916.5H2337.5V904ZM50 1054H25V1079H62.5V1091.5H75V1116.5H62.5V1129H12.5V1116.5H0V1104H25V1116.5H50V1091.5H12.5V1079H0V1054H12.5V1041.5H62.5V1054H75V1066.5H50V1054ZM137.5 1054H112.5V1116.5H137.5V1054ZM100 1116.5H87.5V1054H100V1041.5H150V1054H162.5V1116.5H150V1129H100V1116.5ZM275 1054H250V1079H287.5V1091.5H300V1116.5H287.5V1129H237.5V1116.5H225V1104H250V1116.5H275V1091.5H237.5V1079H225V1054H237.5V1041.5H287.5V1054H300V1066.5H275V1054ZM325 1091.5V1129H312.5V1041.5H337.5V1066.5H375V1041.5H400V1129H375V1091.5H362.5V1116.5H337.5V1091.5H325ZM462.5 1054H437.5V1116.5H462.5V1054ZM425 1116.5H412.5V1054H425V1041.5H475V1054H487.5V1116.5H475V1129H425V1116.5ZM562.5 1113.38V1129H500V1041.5H525V1113.38H562.5ZM575 1129V1041.5H637.5V1054H600V1079H637.5V1091.5H600V1116.5H637.5V1129H575ZM650 1141.5V1116.5H662.5V1141.5H650ZM725 1129V1041.5H750V1129H725ZM837.5 1041.5V1054H812.5V1129H787.5V1054H762.5V1041.5H837.5ZM850 1066.5V1041.5H862.5V1066.5H850ZM925 1054H900V1079H937.5V1091.5H950V1116.5H937.5V1129H887.5V1116.5H875V1104H900V1116.5H925V1091.5H887.5V1079H875V1054H887.5V1041.5H937.5V1054H950V1066.5H925V1054ZM1075 1113.38V1129H1012.5V1041.5H1037.5V1113.38H1075ZM1087.5 1129V1041.5H1112.5V1129H1087.5ZM1150 1129H1125V1041.5H1150V1079H1162.5V1066.5H1175V1041.5H1200V1066.5H1187.5V1079H1175V1091.5H1187.5V1104H1200V1129H1175V1104H1162.5V1091.5H1150V1129ZM1212.5 1129V1041.5H1275V1054H1237.5V1079H1275V1091.5H1237.5V1116.5H1275V1129H1212.5ZM1387.5 1091.5V1054H1362.5V1091.5H1387.5ZM1362.5 1104V1129H1337.5V1054H1350V1041.5H1400V1054H1412.5V1129H1387.5V1104H1362.5ZM1525 1054H1500V1079H1537.5V1091.5H1550V1116.5H1537.5V1129H1487.5V1116.5H1475V1104H1500V1116.5H1525V1091.5H1487.5V1079H1475V1054H1487.5V1041.5H1537.5V1054H1550V1066.5H1525V1054ZM1612.5 1054H1587.5V1079H1612.5V1054ZM1625 1079V1091.5H1587.5V1129H1562.5V1041.5H1625V1054H1637.5V1079H1625ZM1650 1129V1041.5H1712.5V1054H1675V1079H1712.5V1091.5H1675V1116.5H1712.5V1129H1650ZM1775 1104H1800V1116.5H1787.5V1129H1737.5V1116.5H1725V1054H1737.5V1041.5H1787.5V1054H1800V1066.5H1775V1054H1750V1116.5H1775V1104ZM1837.5 1129H1812.5V1041.5H1837.5V1079H1850V1066.5H1862.5V1041.5H1887.5V1066.5H1875V1079H1862.5V1091.5H1875V1104H1887.5V1129H1862.5V1104H1850V1091.5H1837.5V1129ZM2000 1054H1975V1116.5H2000V1054ZM1962.5 1116.5H1950V1054H1962.5V1041.5H2012.5V1054H2025V1116.5H2012.5V1129H1962.5V1116.5ZM2100 1041.5V1054H2062.5V1079H2100V1091.5H2062.5V1129H2037.5V1041.5H2100ZM50 1204H25V1266.5H50V1204ZM0 1279V1191.5H62.5V1204H75V1266.5H62.5V1279H0ZM137.5 1191.5H162.5V1279H100V1266.5H87.5V1191.5H112.5V1266.5H137.5V1191.5ZM225 1204H200V1229H237.5V1241.5H250V1266.5H237.5V1279H187.5V1266.5H175V1254H200V1266.5H225V1241.5H187.5V1229H175V1204H187.5V1191.5H237.5V1204H250V1216.5H225V1204ZM337.5 1191.5V1204H312.5V1279H287.5V1204H262.5V1191.5H337.5ZM450 1204H425V1266.5H450V1204ZM412.5 1266.5H400V1204H412.5V1191.5H462.5V1204H475V1266.5H462.5V1279H412.5V1266.5ZM500 1241.5V1279H487.5V1191.5H512.5V1216.5H525V1241.5H537.5V1191.5H562.5V1279H537.5V1266.5H512.5V1241.5H500ZM675 1241.5V1204H650V1241.5H675ZM650 1254V1279H625V1204H637.5V1191.5H687.5V1204H700V1279H675V1254H650ZM725 1241.5V1279H712.5V1191.5H737.5V1216.5H750V1241.5H762.5V1191.5H787.5V1279H762.5V1266.5H737.5V1241.5H725ZM900 1241.5V1204H875V1241.5H900ZM875 1254V1279H850V1204H862.5V1191.5H912.5V1204H925V1279H900V1254H875ZM950 1241.5V1279H937.5V1191.5H962.5V1216.5H975V1241.5H987.5V1191.5H1012.5V1279H987.5V1266.5H962.5V1241.5H950ZM1100 1191.5V1204H1075V1279H1050V1204H1025V1191.5H1100ZM1212.5 1191.5H1237.5V1279H1212.5V1241.5H1187.5V1279H1162.5V1191.5H1187.5V1229H1212.5V1191.5ZM1250 1279V1191.5H1275V1279H1250ZM1350 1263.38V1279H1287.5V1191.5H1312.5V1263.38H1350ZM1425 1263.38V1279H1362.5V1191.5H1387.5V1263.38H1425ZM1437.5 1279V1263.38H1450V1279H1437.5ZM1437.5 1191.5H1462.5V1238.38H1450V1250.88H1437.5V1191.5ZM75 2129V2091.5H87.5V2179H62.5V2154H25V2179H0V2091.5H25V2129H37.5V2104H62.5V2129H75ZM100 2179V2091.5H125V2179H100ZM212.5 2091.5V2104H187.5V2179H162.5V2104H137.5V2091.5H212.5ZM275 2091.5H300V2179H275V2141.5H250V2179H225V2091.5H250V2129H275V2091.5ZM412.5 2104H387.5V2129H412.5V2104ZM362.5 2179V2091.5H425V2104H437.5V2129H425V2141.5H437.5V2166.5H425V2179H362.5ZM412.5 2166.5V2141.5H387.5V2166.5H412.5ZM500 2141.5V2104H475V2141.5H500ZM475 2154V2179H450V2104H462.5V2091.5H512.5V2104H525V2179H500V2154H475ZM587.5 2104H562.5V2129H600V2141.5H612.5V2166.5H600V2179H550V2166.5H537.5V2154H562.5V2166.5H587.5V2141.5H550V2129H537.5V2104H550V2091.5H600V2104H612.5V2116.5H587.5V2104ZM625 2179V2091.5H687.5V2104H650V2129H687.5V2141.5H650V2166.5H687.5V2179H625ZM750 2104H725V2166.5H750V2104ZM700 2179V2091.5H762.5V2104H775V2166.5H762.5V2179H700ZM887.5 2104H862.5V2129H900V2141.5H912.5V2166.5H900V2179H850V2166.5H837.5V2154H862.5V2166.5H887.5V2141.5H850V2129H837.5V2104H850V2091.5H900V2104H912.5V2116.5H887.5V2104ZM937.5 2141.5V2179H925V2091.5H950V2116.5H987.5V2091.5H1012.5V2179H987.5V2141.5H975V2166.5H950V2141.5H937.5ZM1075 2104H1050V2166.5H1075V2104ZM1037.5 2166.5H1025V2104H1037.5V2091.5H1087.5V2104H1100V2166.5H1087.5V2179H1037.5V2166.5ZM1175 2163.38V2179H1112.5V2091.5H1137.5V2163.38H1175ZM1187.5 2179V2091.5H1250V2104H1212.5V2129H1250V2141.5H1212.5V2166.5H1250V2179H1187.5ZM1262.5 2191.5V2166.5H1275V2191.5H1262.5ZM1337.5 2179V2091.5H1400V2104H1362.5V2129H1400V2141.5H1362.5V2166.5H1400V2179H1337.5ZM1462.5 2154V2091.5H1487.5V2154H1475V2166.5H1462.5V2179H1437.5V2166.5H1425V2154H1412.5V2091.5H1437.5V2154H1462.5ZM1500 2179V2091.5H1562.5V2104H1525V2129H1562.5V2141.5H1525V2166.5H1562.5V2179H1500ZM1587.5 2141.5V2179H1575V2091.5H1600V2116.5H1612.5V2141.5H1625V2091.5H1650V2179H1625V2166.5H1600V2141.5H1587.5ZM1787.5 2091.5V2104H1762.5V2179H1737.5V2104H1712.5V2091.5H1787.5ZM1850 2091.5H1875V2179H1850V2141.5H1825V2179H1800V2091.5H1825V2129H1850V2091.5ZM1887.5 2179V2091.5H1950V2104H1912.5V2129H1950V2141.5H1912.5V2166.5H1950V2179H1887.5ZM75 2241.5V2254H50V2329H25V2254H0V2241.5H75ZM87.5 2329V2241.5H112.5V2329H87.5ZM137.5 2291.5V2329H125V2241.5H150V2266.5H162.5V2291.5H175V2241.5H200V2329H175V2316.5H150V2291.5H137.5ZM212.5 2329V2241.5H237.5V2329H212.5ZM250 2329V2241.5H312.5V2254H275V2279H312.5V2291.5H275V2316.5H312.5V2329H250ZM375 2254H350V2279H387.5V2291.5H400V2316.5H387.5V2329H337.5V2316.5H325V2304H350V2316.5H375V2291.5H337.5V2279H325V2254H337.5V2241.5H387.5V2254H400V2266.5H375V2254ZM487.5 2241.5V2254H462.5V2329H437.5V2254H412.5V2241.5H487.5ZM550 2329V2241.5H575V2329H550ZM600 2291.5V2329H587.5V2241.5H612.5V2266.5H625V2291.5H637.5V2241.5H662.5V2329H637.5V2316.5H612.5V2291.5H600ZM725 2304V2241.5H750V2304H737.5V2316.5H725V2329H700V2316.5H687.5V2304H675V2241.5H700V2304H725ZM762.5 2329V2241.5H825V2254H787.5V2279H825V2291.5H787.5V2316.5H825V2329H762.5ZM887.5 2254H862.5V2279H900V2291.5H912.5V2316.5H900V2329H850V2316.5H837.5V2304H862.5V2316.5H887.5V2291.5H850V2279H837.5V2254H850V2241.5H900V2254H912.5V2266.5H887.5V2254ZM1000 2241.5V2254H975V2329H950V2254H925V2241.5H1000ZM1062.5 2254H1037.5V2316.5H1062.5V2254ZM1025 2316.5H1012.5V2254H1025V2241.5H1075V2254H1087.5V2316.5H1075V2329H1025V2316.5ZM1150 2254H1125V2279H1150V2254ZM1162.5 2291.5H1175V2329H1150V2291.5H1125V2329H1100V2241.5H1162.5V2254H1175V2279H1162.5V2291.5ZM1237.5 2254H1212.5V2279H1250V2291.5H1262.5V2316.5H1250V2329H1200V2316.5H1187.5V2304H1212.5V2316.5H1237.5V2291.5H1200V2279H1187.5V2254H1200V2241.5H1250V2254H1262.5V2266.5H1237.5V2254ZM1375 2304H1400V2316.5H1387.5V2329H1337.5V2316.5H1325V2254H1337.5V2241.5H1387.5V2254H1400V2266.5H1375V2254H1350V2316.5H1375V2304ZM1462.5 2291.5V2254H1437.5V2291.5H1462.5ZM1437.5 2304V2329H1412.5V2254H1425V2241.5H1475V2254H1487.5V2329H1462.5V2304H1437.5ZM1512.5 2291.5V2329H1500V2241.5H1525V2266.5H1537.5V2291.5H1550V2241.5H1575V2329H1550V2316.5H1525V2291.5H1512.5ZM1700 2241.5V2254H1662.5V2279H1700V2291.5H1662.5V2329H1637.5V2241.5H1700ZM1712.5 2329V2241.5H1775V2254H1737.5V2279H1775V2291.5H1737.5V2316.5H1775V2329H1712.5ZM1787.5 2329V2241.5H1850V2254H1812.5V2279H1850V2291.5H1812.5V2316.5H1850V2329H1787.5ZM1925 2313.38V2329H1862.5V2241.5H1887.5V2313.38H1925ZM2050 2313.38V2329H1987.5V2241.5H2012.5V2313.38H2050ZM2062.5 2329V2241.5H2087.5V2329H2062.5ZM2125 2329H2100V2241.5H2125V2279H2137.5V2266.5H2150V2241.5H2175V2266.5H2162.5V2279H2150V2291.5H2162.5V2304H2175V2329H2150V2304H2137.5V2291.5H2125V2329ZM2187.5 2329V2241.5H2250V2254H2212.5V2279H2250V2291.5H2212.5V2316.5H2250V2329H2187.5ZM12.5 2441.5V2479H0V2391.5H25V2416.5H62.5V2391.5H87.5V2479H62.5V2441.5H50V2466.5H25V2441.5H12.5ZM100 2479V2391.5H125V2479H100ZM200 2463.38V2479H137.5V2391.5H162.5V2463.38H200ZM275 2463.38V2479H212.5V2391.5H237.5V2463.38H275ZM287.5 2479V2391.5H312.5V2479H287.5ZM375 2404H350V2466.5H375V2404ZM337.5 2466.5H325V2404H337.5V2391.5H387.5V2404H400V2466.5H387.5V2479H337.5V2466.5ZM425 2441.5V2479H412.5V2391.5H437.5V2416.5H450V2441.5H462.5V2391.5H487.5V2479H462.5V2466.5H437.5V2441.5H425ZM550 2441.5V2404H525V2441.5H550ZM525 2454V2479H500V2404H512.5V2391.5H562.5V2404H575V2479H550V2454H525ZM587.5 2479V2391.5H612.5V2479H587.5ZM675 2404H650V2429H675V2404ZM687.5 2441.5H700V2479H675V2441.5H650V2479H625V2391.5H687.5V2404H700V2429H687.5V2441.5ZM712.5 2479V2391.5H775V2404H737.5V2429H775V2441.5H737.5V2466.5H775V2479H712.5ZM837.5 2404H812.5V2429H850V2441.5H862.5V2466.5H850V2479H800V2466.5H787.5V2454H812.5V2466.5H837.5V2441.5H800V2429H787.5V2404H800V2391.5H850V2404H862.5V2416.5H837.5V2404ZM875 2479V2463.38H887.5V2479H875ZM875 2391.5H900V2438.38H887.5V2450.88H875V2391.5ZM50 2704H25V2729H62.5V2741.5H75V2766.5H62.5V2779H12.5V2766.5H0V2754H25V2766.5H50V2741.5H12.5V2729H0V2704H12.5V2691.5H62.5V2704H75V2716.5H50V2704ZM137.5 2704H112.5V2766.5H137.5V2704ZM100 2766.5H87.5V2704H100V2691.5H150V2704H162.5V2766.5H150V2779H100V2766.5ZM287.5 2763.38V2779H225V2691.5H250V2763.38H287.5ZM300 2779V2691.5H362.5V2704H325V2729H362.5V2741.5H325V2766.5H362.5V2779H300ZM450 2691.5V2704H425V2779H400V2704H375V2691.5H450ZM462.5 2716.5V2691.5H475V2716.5H462.5ZM537.5 2704H512.5V2729H550V2741.5H562.5V2766.5H550V2779H500V2766.5H487.5V2754H512.5V2766.5H537.5V2741.5H500V2729H487.5V2704H500V2691.5H550V2704H562.5V2716.5H537.5V2704ZM675 2704H650V2766.5H675V2704ZM625 2779V2691.5H687.5V2704H700V2766.5H687.5V2779H625ZM712.5 2779V2691.5H737.5V2779H712.5ZM800 2754V2691.5H825V2754H812.5V2766.5H800V2779H775V2766.5H762.5V2754H750V2691.5H775V2754H800ZM837.5 2779V2691.5H900V2704H862.5V2729H900V2741.5H862.5V2766.5H900V2779H837.5ZM962.5 2779V2691.5H987.5V2779H962.5ZM1012.5 2741.5V2779H1000V2691.5H1025V2716.5H1037.5V2741.5H1050V2691.5H1075V2779H1050V2766.5H1025V2741.5H1012.5ZM1162.5 2691.5V2704H1137.5V2779H1112.5V2704H1087.5V2691.5H1162.5ZM1225 2704H1200V2766.5H1225V2704ZM1187.5 2766.5H1175V2704H1187.5V2691.5H1237.5V2704H1250V2766.5H1237.5V2779H1187.5V2766.5ZM1387.5 2691.5V2704H1362.5V2779H1337.5V2704H1312.5V2691.5H1387.5ZM1450 2691.5H1475V2779H1450V2741.5H1425V2779H1400V2691.5H1425V2729H1450V2691.5ZM1487.5 2779V2691.5H1550V2704H1512.5V2729H1550V2741.5H1512.5V2766.5H1550V2779H1487.5ZM1687.5 2729V2691.5H1700V2779H1675V2754H1637.5V2779H1612.5V2691.5H1637.5V2729H1650V2704H1675V2729H1687.5ZM1762.5 2704H1737.5V2766.5H1762.5V2704ZM1725 2766.5H1712.5V2704H1725V2691.5H1775V2704H1787.5V2766.5H1775V2779H1725V2766.5ZM1850 2704H1825V2729H1850V2704ZM1862.5 2741.5H1875V2779H1850V2741.5H1825V2779H1800V2691.5H1862.5V2704H1875V2729H1862.5V2741.5ZM1950 2763.38V2779H1887.5V2691.5H1912.5V2763.38H1950ZM2012.5 2704H1987.5V2766.5H2012.5V2704ZM1962.5 2779V2691.5H2025V2704H2037.5V2766.5H2025V2779H1962.5ZM2150 2704H2125V2766.5H2150V2704ZM2112.5 2766.5H2100V2704H2112.5V2691.5H2162.5V2704H2175V2766.5H2162.5V2779H2112.5V2766.5ZM2250 2691.5V2704H2212.5V2729H2250V2741.5H2212.5V2779H2187.5V2691.5H2250ZM50 2854H25V2879H50V2854ZM0 2929V2841.5H62.5V2854H75V2879H62.5V2891.5H75V2916.5H62.5V2929H0ZM50 2916.5V2891.5H25V2916.5H50ZM137.5 2891.5V2854H112.5V2891.5H137.5ZM112.5 2904V2929H87.5V2854H100V2841.5H150V2854H162.5V2929H137.5V2904H112.5ZM225 2854H200V2879H237.5V2891.5H250V2916.5H237.5V2929H187.5V2916.5H175V2904H200V2916.5H225V2891.5H187.5V2879H175V2854H187.5V2841.5H237.5V2854H250V2866.5H225V2854ZM262.5 2929V2841.5H325V2854H287.5V2879H325V2891.5H287.5V2916.5H325V2929H262.5ZM387.5 2854H362.5V2916.5H387.5V2854ZM337.5 2929V2841.5H400V2854H412.5V2916.5H400V2929H337.5ZM525 2854H500V2879H537.5V2891.5H550V2916.5H537.5V2929H487.5V2916.5H475V2904H500V2916.5H525V2891.5H487.5V2879H475V2854H487.5V2841.5H537.5V2854H550V2866.5H525V2854ZM575 2891.5V2929H562.5V2841.5H587.5V2866.5H625V2841.5H650V2929H625V2891.5H612.5V2916.5H587.5V2891.5H575ZM712.5 2854H687.5V2916.5H712.5V2854ZM675 2916.5H662.5V2854H675V2841.5H725V2854H737.5V2916.5H725V2929H675V2916.5ZM812.5 2913.38V2929H750V2841.5H775V2913.38H812.5ZM825 2929V2841.5H887.5V2854H850V2879H887.5V2891.5H850V2916.5H887.5V2929H825ZM1025 2841.5V2854H1000V2929H975V2854H950V2841.5H1025ZM1087.5 2854H1062.5V2916.5H1087.5V2854ZM1050 2916.5H1037.5V2854H1050V2841.5H1100V2854H1112.5V2916.5H1100V2929H1050V2916.5ZM1175 2918.06V2929H1137.5V2916.5H1125V2854H1137.5V2841.5H1200V2866.5H1187.5V2854H1150V2916.5H1173.44L1175 2914.94V2891.5H1162.5V2879H1200V2929H1187.5V2916.5H1176.56L1175 2918.06ZM1212.5 2929V2841.5H1275V2854H1237.5V2879H1275V2891.5H1237.5V2916.5H1275V2929H1212.5ZM1362.5 2841.5V2854H1337.5V2929H1312.5V2854H1287.5V2841.5H1362.5ZM1425 2841.5H1450V2929H1425V2891.5H1400V2929H1375V2841.5H1400V2879H1425V2841.5ZM1462.5 2929V2841.5H1525V2854H1487.5V2879H1525V2891.5H1487.5V2916.5H1525V2929H1462.5ZM1587.5 2854H1562.5V2879H1587.5V2854ZM1600 2891.5H1612.5V2929H1587.5V2891.5H1562.5V2929H1537.5V2841.5H1600V2854H1612.5V2879H1600V2891.5ZM1675 2879H1737.5V2891.5H1675V2879ZM1875 2841.5V2854H1850V2929H1825V2854H1800V2841.5H1875ZM1937.5 2841.5H1962.5V2929H1937.5V2891.5H1912.5V2929H1887.5V2841.5H1912.5V2879H1937.5V2841.5ZM1975 2929V2841.5H2037.5V2854H2000V2879H2037.5V2891.5H2000V2916.5H2037.5V2929H1975ZM75 2991.5V3004H50V3079H25V3004H0V2991.5H75ZM137.5 3004H112.5V3066.5H137.5V3004ZM100 3066.5H87.5V3004H100V2991.5H150V3004H162.5V3066.5H150V3079H100V3066.5ZM200 3079H175V2991.5H200V3029H212.5V3016.5H225V2991.5H250V3016.5H237.5V3029H225V3041.5H237.5V3054H250V3079H225V3054H212.5V3041.5H200V3079ZM262.5 3079V2991.5H325V3004H287.5V3029H325V3041.5H287.5V3066.5H325V3079H262.5ZM350 3041.5V3079H337.5V2991.5H362.5V3016.5H375V3041.5H387.5V2991.5H412.5V3079H387.5V3066.5H362.5V3041.5H350ZM550 3029V2991.5H562.5V3079H537.5V3054H500V3079H475V2991.5H500V3029H512.5V3004H537.5V3029H550ZM575 3079V2991.5H600V3079H575ZM687.5 2991.5V3004H662.5V3079H637.5V3004H612.5V2991.5H687.5ZM750 2991.5H775V3079H750V3041.5H725V3079H700V2991.5H725V3029H750V2991.5ZM887.5 3041.5V3004H862.5V3041.5H887.5ZM862.5 3054V3079H837.5V3004H850V2991.5H900V3004H912.5V3079H887.5V3054H862.5ZM1050 2991.5V3004H1025V3079H1000V3004H975V2991.5H1050ZM1062.5 3079V2991.5H1087.5V3079H1062.5ZM1112.5 3041.5V3079H1100V2991.5H1125V3016.5H1137.5V3041.5H1150V2991.5H1175V3079H1150V3066.5H1125V3041.5H1112.5ZM1237.5 3029V2991.5H1262.5V3029H1250V3041.5H1237.5V3079H1212.5V3041.5H1200V3029H1187.5V2991.5H1212.5V3029H1237.5ZM1375 3004H1350V3029H1387.5V3041.5H1400V3066.5H1387.5V3079H1337.5V3066.5H1325V3054H1350V3066.5H1375V3041.5H1337.5V3029H1325V3004H1337.5V2991.5H1387.5V3004H1400V3016.5H1375V3004ZM1412.5 3079V2991.5H1437.5V3079H1412.5ZM1500 3004H1450V2991.5H1525V3016.5H1512.5V3029H1500V3041.5H1475V3066.5H1525V3079H1450V3041.5H1462.5V3029H1475V3016.5H1500V3004ZM1537.5 3079V2991.5H1600V3004H1562.5V3029H1600V3041.5H1562.5V3066.5H1600V3079H1537.5ZM1712.5 3041.5V3004H1687.5V3041.5H1712.5ZM1687.5 3054V3079H1662.5V3004H1675V2991.5H1725V3004H1737.5V3079H1712.5V3054H1687.5ZM1762.5 3041.5V3079H1750V2991.5H1775V3016.5H1787.5V3041.5H1800V2991.5H1825V3079H1800V3066.5H1775V3041.5H1762.5ZM1887.5 3004H1862.5V3066.5H1887.5V3004ZM1837.5 3079V2991.5H1900V3004H1912.5V3066.5H1900V3079H1837.5ZM2025 3004H2000V3029H2025V3004ZM1975 3079V2991.5H2037.5V3004H2050V3029H2037.5V3041.5H2050V3066.5H2037.5V3079H1975ZM2025 3066.5V3041.5H2000V3066.5H2025ZM2062.5 3079V2991.5H2087.5V3079H2062.5ZM2150 3068.06V3079H2112.5V3066.5H2100V3004H2112.5V2991.5H2175V3016.5H2162.5V3004H2125V3066.5H2148.44L2150 3064.94V3041.5H2137.5V3029H2175V3079H2162.5V3066.5H2151.56L2150 3068.06ZM50 3154H25V3179H50V3154ZM62.5 3179V3191.5H25V3229H0V3141.5H62.5V3154H75V3179H62.5ZM137.5 3154H112.5V3216.5H137.5V3154ZM100 3216.5H87.5V3154H100V3141.5H150V3154H162.5V3216.5H150V3229H100V3216.5ZM250 3141.5V3154H225V3229H200V3154H175V3141.5H250ZM262.5 3229V3141.5H325V3154H287.5V3179H325V3191.5H287.5V3216.5H325V3229H262.5ZM350 3191.5V3229H337.5V3141.5H362.5V3166.5H375V3191.5H387.5V3141.5H412.5V3229H387.5V3216.5H362.5V3191.5H350ZM500 3141.5V3154H475V3229H450V3154H425V3141.5H500ZM512.5 3229V3141.5H537.5V3229H512.5ZM600 3191.5V3154H575V3191.5H600ZM575 3204V3229H550V3154H562.5V3141.5H612.5V3154H625V3229H600V3204H575ZM700 3213.38V3229H637.5V3141.5H662.5V3213.38H700ZM712.5 3229V3216.5H725V3229H712.5Z" fill="white"/>
<path d="M0 1579V1491.5H62.5V1504H25V1529H62.5V1541.5H25V1566.5H62.5V1579H0ZM125 1554V1491.5H150V1554H137.5V1566.5H125V1579H100V1566.5H87.5V1554H75V1491.5H100V1554H125ZM162.5 1579V1491.5H225V1504H187.5V1529H225V1541.5H187.5V1566.5H225V1579H162.5ZM250 1541.5V1579H237.5V1491.5H262.5V1516.5H275V1541.5H287.5V1491.5H312.5V1579H287.5V1566.5H262.5V1541.5H250ZM450 1491.5V1504H425V1579H400V1504H375V1491.5H450ZM512.5 1491.5H537.5V1579H512.5V1541.5H487.5V1579H462.5V1491.5H487.5V1529H512.5V1491.5ZM550 1579V1491.5H612.5V1504H575V1529H612.5V1541.5H575V1566.5H612.5V1579H550ZM725 1504H700V1529H737.5V1541.5H750V1566.5H737.5V1579H687.5V1566.5H675V1554H700V1566.5H725V1541.5H687.5V1529H675V1504H687.5V1491.5H737.5V1504H750V1516.5H725V1504ZM775 1541.5V1579H762.5V1491.5H787.5V1516.5H825V1491.5H850V1579H825V1541.5H812.5V1566.5H787.5V1541.5H775ZM912.5 1504H887.5V1566.5H912.5V1504ZM875 1566.5H862.5V1504H875V1491.5H925V1504H937.5V1566.5H925V1579H875V1566.5ZM1012.5 1563.38V1579H950V1491.5H975V1563.38H1012.5ZM1025 1579V1491.5H1087.5V1504H1050V1529H1087.5V1541.5H1050V1566.5H1087.5V1579H1025ZM1150 1504H1125V1529H1162.5V1541.5H1175V1566.5H1162.5V1579H1112.5V1566.5H1100V1554H1125V1566.5H1150V1541.5H1112.5V1529H1100V1504H1112.5V1491.5H1162.5V1504H1175V1516.5H1150V1504ZM1262.5 1491.5V1504H1237.5V1579H1212.5V1504H1187.5V1491.5H1262.5ZM1375 1504H1350V1529H1375V1504ZM1387.5 1529V1541.5H1350V1579H1325V1491.5H1387.5V1504H1400V1529H1387.5ZM1462.5 1491.5H1487.5V1579H1425V1566.5H1412.5V1491.5H1437.5V1566.5H1462.5V1491.5ZM1550 1504H1525V1529H1550V1504ZM1562.5 1541.5H1575V1579H1550V1541.5H1525V1579H1500V1491.5H1562.5V1504H1575V1529H1562.5V1541.5ZM1637.5 1554H1662.5V1566.5H1650V1579H1600V1566.5H1587.5V1504H1600V1491.5H1650V1504H1662.5V1516.5H1637.5V1504H1612.5V1566.5H1637.5V1554ZM1725 1491.5H1750V1579H1725V1541.5H1700V1579H1675V1491.5H1700V1529H1725V1491.5ZM1812.5 1541.5V1504H1787.5V1541.5H1812.5ZM1787.5 1554V1579H1762.5V1504H1775V1491.5H1825V1504H1837.5V1579H1812.5V1554H1787.5ZM1900 1504H1875V1529H1912.5V1541.5H1925V1566.5H1912.5V1579H1862.5V1566.5H1850V1554H1875V1566.5H1900V1541.5H1862.5V1529H1850V1504H1862.5V1491.5H1912.5V1504H1925V1516.5H1900V1504ZM1937.5 1579V1491.5H2000V1504H1962.5V1529H2000V1541.5H1962.5V1566.5H2000V1579H1937.5ZM2062.5 1504H2037.5V1529H2075V1541.5H2087.5V1566.5H2075V1579H2025V1566.5H2012.5V1554H2037.5V1566.5H2062.5V1541.5H2025V1529H2012.5V1504H2025V1491.5H2075V1504H2087.5V1516.5H2062.5V1504ZM2225 1529V1491.5H2237.5V1579H2212.5V1554H2175V1579H2150V1491.5H2175V1529H2187.5V1504H2212.5V1529H2225ZM2250 1579V1491.5H2275V1579H2250ZM2362.5 1491.5V1504H2337.5V1579H2312.5V1504H2287.5V1491.5H2362.5ZM2425 1491.5H2450V1579H2425V1541.5H2400V1579H2375V1491.5H2400V1529H2425V1491.5ZM50 1654H25V1679H50V1654ZM0 1729V1641.5H62.5V1654H75V1679H62.5V1691.5H75V1716.5H62.5V1729H0ZM50 1716.5V1691.5H25V1716.5H50ZM137.5 1691.5V1654H112.5V1691.5H137.5ZM112.5 1704V1729H87.5V1654H100V1641.5H150V1654H162.5V1729H137.5V1704H112.5ZM225 1654H200V1679H237.5V1691.5H250V1716.5H237.5V1729H187.5V1716.5H175V1704H200V1716.5H225V1691.5H187.5V1679H175V1654H187.5V1641.5H237.5V1654H250V1666.5H225V1654ZM262.5 1729V1641.5H325V1654H287.5V1679H325V1691.5H287.5V1716.5H325V1729H262.5ZM387.5 1654H362.5V1716.5H387.5V1654ZM337.5 1729V1641.5H400V1654H412.5V1716.5H400V1729H337.5ZM525 1654H500V1679H537.5V1691.5H550V1716.5H537.5V1729H487.5V1716.5H475V1704H500V1716.5H525V1691.5H487.5V1679H475V1654H487.5V1641.5H537.5V1654H550V1666.5H525V1654ZM575 1691.5V1729H562.5V1641.5H587.5V1666.5H625V1641.5H650V1729H625V1691.5H612.5V1716.5H587.5V1691.5H575ZM712.5 1654H687.5V1716.5H712.5V1654ZM675 1716.5H662.5V1654H675V1641.5H725V1654H737.5V1716.5H725V1729H675V1716.5ZM812.5 1713.38V1729H750V1641.5H775V1713.38H812.5ZM825 1729V1641.5H887.5V1654H850V1679H887.5V1691.5H850V1716.5H887.5V1729H825ZM1000 1704H1025V1716.5H1012.5V1729H962.5V1716.5H950V1654H962.5V1641.5H1012.5V1654H1025V1666.5H1000V1654H975V1716.5H1000V1704ZM1087.5 1691.5V1654H1062.5V1691.5H1087.5ZM1062.5 1704V1729H1037.5V1654H1050V1641.5H1100V1654H1112.5V1729H1087.5V1704H1062.5ZM1137.5 1691.5V1729H1125V1641.5H1150V1666.5H1162.5V1691.5H1175V1641.5H1200V1729H1175V1716.5H1150V1691.5H1137.5ZM1262.5 1729V1641.5H1287.5V1729H1262.5ZM1312.5 1691.5V1729H1300V1641.5H1325V1666.5H1337.5V1691.5H1350V1641.5H1375V1729H1350V1716.5H1325V1691.5H1312.5ZM1437.5 1654H1412.5V1679H1450V1691.5H1462.5V1716.5H1450V1729H1400V1716.5H1387.5V1704H1412.5V1716.5H1437.5V1691.5H1400V1679H1387.5V1654H1400V1641.5H1450V1654H1462.5V1666.5H1437.5V1654ZM1525 1654H1500V1679H1525V1654ZM1537.5 1679V1691.5H1500V1729H1475V1641.5H1537.5V1654H1550V1679H1537.5ZM1562.5 1729V1641.5H1587.5V1729H1562.5ZM1650 1654H1625V1679H1650V1654ZM1662.5 1691.5H1675V1729H1650V1691.5H1625V1729H1600V1641.5H1662.5V1654H1675V1679H1662.5V1691.5ZM1687.5 1729V1641.5H1750V1654H1712.5V1679H1750V1691.5H1712.5V1716.5H1750V1729H1687.5ZM1887.5 1641.5V1654H1862.5V1729H1837.5V1654H1812.5V1641.5H1887.5ZM1950 1641.5H1975V1729H1950V1691.5H1925V1729H1900V1641.5H1925V1679H1950V1641.5ZM1987.5 1729V1641.5H2050V1654H2012.5V1679H2050V1691.5H2012.5V1716.5H2050V1729H1987.5ZM50 1804H25V1829H50V1804ZM0 1879V1791.5H62.5V1804H75V1829H62.5V1841.5H75V1866.5H62.5V1879H0ZM50 1866.5V1841.5H25V1866.5H50ZM87.5 1879V1791.5H112.5V1879H87.5ZM175 1868.06V1879H137.5V1866.5H125V1804H137.5V1791.5H200V1816.5H187.5V1804H150V1866.5H173.438L175 1864.94V1841.5H162.5V1829H200V1879H187.5V1866.5H176.562L175 1868.06ZM262.5 1868.06V1879H225V1866.5H212.5V1804H225V1791.5H287.5V1816.5H275V1804H237.5V1866.5H260.938L262.5 1864.94V1841.5H250V1829H287.5V1879H275V1866.5H264.062L262.5 1868.06ZM300 1879V1791.5H362.5V1804H325V1829H362.5V1841.5H325V1866.5H362.5V1879H300ZM425 1804H400V1829H437.5V1841.5H450V1866.5H437.5V1879H387.5V1866.5H375V1854H400V1866.5H425V1841.5H387.5V1829H375V1804H387.5V1791.5H437.5V1804H450V1816.5H425V1804ZM537.5 1791.5V1804H512.5V1879H487.5V1804H462.5V1791.5H537.5ZM650 1804H625V1866.5H650V1804ZM600 1879V1791.5H662.5V1804H675V1866.5H662.5V1879H600ZM737.5 1804H712.5V1829H737.5V1804ZM750 1841.5H762.5V1879H737.5V1841.5H712.5V1879H687.5V1791.5H750V1804H762.5V1829H750V1841.5ZM775 1879V1791.5H837.5V1804H800V1829H837.5V1841.5H800V1866.5H837.5V1879H775ZM900 1841.5V1804H875V1841.5H900ZM875 1854V1879H850V1804H862.5V1791.5H912.5V1804H925V1879H900V1854H875ZM950 1841.5V1879H937.5V1791.5H962.5V1816.5H1000V1791.5H1025V1879H1000V1841.5H987.5V1866.5H962.5V1841.5H950ZM1087.5 1804H1062.5V1829H1100V1841.5H1112.5V1866.5H1100V1879H1050V1866.5H1037.5V1854H1062.5V1866.5H1087.5V1841.5H1050V1829H1037.5V1804H1050V1791.5H1100V1804H1112.5V1816.5H1087.5V1804ZM1125 1879V1863.38H1137.5V1879H1125ZM1125 1791.5H1150V1838.38H1137.5V1850.88H1125V1791.5Z" fill="#EA7BAB"/>
<path d="M0 415L2486 415" stroke="white" stroke-width="10" stroke-dasharray="20 20"/>
</svg>
