<svg width="96" height="80" viewBox="0 0 96 80" fill="none" xmlns="http://www.w3.org/2000/svg">
<path d="M95.811 2.28262C95.467 1.26929 95.0564 1.00262 94.415 0.749289C93.0124 0.229289 90.6364 1.01596 90.6364 1.01596C90.6364 1.01596 6.52302 31.256 1.71769 34.6026C0.683021 35.3226 0.336368 35.7493 0.164368 36.2426C-0.666299 38.616 1.92169 39.6693 1.92169 39.6693L23.6017 46.736C23.6017 46.736 24.4097 46.856 24.6977 46.6693C29.6297 43.5493 74.319 15.3359 76.8964 14.3893C77.303 14.2693 77.6044 14.4026 77.5244 14.6826C76.4924 18.3093 37.6777 52.8026 37.6777 52.8026C37.6777 52.8026 37.5297 52.9893 37.4364 53.2026L37.3857 53.1759L35.363 74.6826C35.363 74.6826 34.515 81.2693 41.103 74.6826C45.751 70.0293 50.2484 66.1359 52.499 64.2559C59.9537 69.4026 67.9764 75.096 71.439 78.0693C73.1777 79.5626 74.6324 79.8026 75.8297 79.7626C79.1164 79.6426 80.0337 76.0293 80.0337 76.0293C80.0337 76.0293 95.3617 14.336 95.8737 6.06929C95.9244 5.25596 95.9937 4.74928 95.999 4.18928C96.0084 3.41595 95.9364 2.64262 95.811 2.28262Z" fill="white"/>
</svg>
