<svg width="118" height="95" viewBox="0 0 118 95" fill="none" xmlns="http://www.w3.org/2000/svg">
<path d="M37.5867 94.6665C81.5467 94.6665 105.587 58.2492 105.587 26.6705C105.587 25.6359 105.56 24.6052 105.52 23.5812C110.187 20.2079 114.24 15.9985 117.44 11.2078C113.16 13.1091 108.547 14.3919 103.72 14.9692C108.653 12.0119 112.44 7.32919 114.227 1.74919C109.6 4.48786 104.493 6.47849 99.0533 7.55049C94.68 2.90516 88.4799 -0.000157118 81.5999 -0.000157118C68.3999 -0.000157118 57.7066 10.7025 57.7066 23.8958C57.7066 25.7718 57.9067 27.5958 58.32 29.3452C38.4533 28.3465 20.8533 18.8372 9.0666 4.37719C7.01327 7.90652 5.82663 12.0119 5.82663 16.3879C5.82663 24.6799 10.0399 31.9986 16.4666 36.2812C12.5466 36.1599 8.85324 35.0825 5.63991 33.2905C5.62658 33.3905 5.62663 33.4905 5.62663 33.5958C5.62663 45.1705 13.8666 54.8332 24.7999 57.0252C22.7999 57.5706 20.6799 57.8652 18.5066 57.8652C16.9599 57.8652 15.4666 57.7131 14.0132 57.4345C17.0532 66.9291 25.8799 73.8385 36.3333 74.0332C28.1599 80.4425 17.8533 84.2625 6.65332 84.2625C4.73332 84.2625 2.82663 84.1532 0.959961 83.9319C11.5333 90.7092 24.0933 94.6665 37.5867 94.6665Z" fill="white"/>
</svg>
